<svg width="172" height="112" viewBox="0 0 172 112" fill="none" xmlns="http://www.w3.org/2000/svg">
<path d="M0.112 51.728H5.232C6.68267 51.728 7.96267 51.4293 9.072 50.832C10.1813 50.1493 11.0773 49.296 11.76 48.272C12.528 47.1627 13.0827 45.968 13.424 44.688C13.8507 43.3227 14.064 41.9573 14.064 40.592V19.984C14.064 16.8267 14.3627 14.0533 14.96 11.664C15.6427 9.27466 16.752 7.26933 18.288 5.64799C19.824 3.94133 21.872 2.66133 24.432 1.808C27.0773 0.954661 30.3627 0.527992 34.288 0.527992H44.656V8.848H33.776C30.192 8.848 27.632 9.65867 26.096 11.28C24.6453 12.9013 23.92 15.8453 23.92 20.112V37.776C23.92 43.4933 23.0667 47.7173 21.36 50.448C19.6533 53.0933 17.6907 54.8853 15.472 55.824C17.6907 56.848 19.6533 58.768 21.36 61.584C23.0667 64.4 23.92 68.496 23.92 73.872V91.536C23.92 95.8027 24.688 98.7467 26.224 100.368C27.76 101.989 30.32 102.8 33.904 102.8H44.656V111.12H34.288C30.3627 111.12 27.0773 110.693 24.432 109.84C21.872 108.987 19.824 107.707 18.288 106C16.752 104.379 15.6427 102.373 14.96 99.984C14.3627 97.5947 14.064 94.8213 14.064 91.664V71.056C14.064 69.776 13.8507 68.496 13.424 67.216C13.0827 65.8507 12.528 64.656 11.76 63.632C11.0773 62.5227 10.1813 61.6267 9.072 60.944C8.048 60.2613 6.81067 59.92 5.36 59.92H0.112V51.728ZM171.888 59.92H166.768C165.317 59.92 164.037 60.2613 162.928 60.944C161.904 61.5413 161.008 62.3947 160.24 63.504C159.557 64.528 159.003 65.7227 158.576 67.088C158.235 68.368 158.064 69.6907 158.064 71.056V91.664C158.064 94.8213 157.723 97.5947 157.04 99.984C156.443 102.373 155.333 104.379 153.712 106C152.176 107.707 150.085 108.987 147.44 109.84C144.88 110.693 141.637 111.12 137.712 111.12H127.344V102.8H138.224C141.808 102.8 144.325 101.989 145.776 100.368C147.312 98.7467 148.08 95.8027 148.08 91.536V73.872C148.08 68.1547 148.933 63.9733 150.64 61.328C152.347 58.5973 154.309 56.7627 156.528 55.824C154.309 54.8 152.347 52.88 150.64 50.064C148.933 47.248 148.08 43.152 148.08 37.776V20.112C148.08 15.8453 147.312 12.9013 145.776 11.28C144.24 9.65867 141.68 8.848 138.096 8.848H127.344V0.527992H137.712C141.637 0.527992 144.88 0.954661 147.44 1.808C150.085 2.66133 152.176 3.94133 153.712 5.64799C155.333 7.26933 156.443 9.27466 157.04 11.664C157.723 14.0533 158.064 16.8267 158.064 19.984V40.592C158.064 41.872 158.235 43.1947 158.576 44.56C158.917 45.84 159.429 47.0347 160.112 48.144C160.88 49.168 161.776 50.0213 162.8 50.704C163.909 51.3867 165.189 51.728 166.64 51.728H171.888V59.92Z" fill="white"/>
<path d="M67.696 90V33.808C76.4 30.8213 85.1893 29.328 94.064 29.328C96.7947 29.328 99.3973 29.456 101.872 29.712C104.347 29.8827 107.077 30.3093 110.064 30.992L108.144 40.336C105.413 39.568 102.981 39.0987 100.848 38.928C98.8 38.672 96.5387 38.544 94.064 38.544C88.8587 38.544 83.568 39.2693 78.192 40.72V90H67.696Z" fill="#FF3AC4"/>
</svg>
