<svg width="104" height="39" viewBox="0 0 104 39" fill="none" xmlns="http://www.w3.org/2000/svg">
<path d="M0.476 17.844H2.236C2.73467 17.844 3.17467 17.7413 3.556 17.536C3.93733 17.3013 4.24533 17.008 4.48 16.656C4.744 16.2747 4.93467 15.864 5.052 15.424C5.19867 14.9547 5.272 14.4853 5.272 14.016V6.932C5.272 5.84666 5.37467 4.89333 5.58 4.072C5.81467 3.25066 6.196 2.56133 6.724 2.004C7.252 1.41733 7.956 0.977333 8.836 0.684C9.74533 0.390665 10.8747 0.243997 12.224 0.243997H15.788V3.104H12.048C10.816 3.104 9.936 3.38267 9.408 3.94C8.90933 4.49733 8.66 5.50933 8.66 6.976V13.048C8.66 15.0133 8.36667 16.4653 7.78 17.404C7.19333 18.3133 6.51867 18.9293 5.756 19.252C6.51867 19.604 7.19333 20.264 7.78 21.232C8.36667 22.2 8.66 23.608 8.66 25.456V31.528C8.66 32.9947 8.924 34.0067 9.452 34.564C9.98 35.1213 10.86 35.4 12.092 35.4H15.788V38.26H12.224C10.8747 38.26 9.74533 38.1133 8.836 37.82C7.956 37.5267 7.252 37.0867 6.724 36.5C6.196 35.9427 5.81467 35.2533 5.58 34.432C5.37467 33.6107 5.272 32.6573 5.272 31.572V24.488C5.272 24.048 5.19867 23.608 5.052 23.168C4.93467 22.6987 4.744 22.288 4.48 21.936C4.24533 21.5547 3.93733 21.2467 3.556 21.012C3.204 20.7773 2.77867 20.66 2.28 20.66H0.476V17.844ZM103.524 20.66H101.764C101.265 20.66 100.825 20.7773 100.444 21.012C100.092 21.2173 99.784 21.5107 99.52 21.892C99.2853 22.244 99.0947 22.6547 98.948 23.124C98.8307 23.564 98.772 24.0187 98.772 24.488V31.572C98.772 32.6573 98.6547 33.6107 98.42 34.432C98.2147 35.2533 97.8333 35.9427 97.276 36.5C96.748 37.0867 96.0293 37.5267 95.12 37.82C94.24 38.1133 93.1253 38.26 91.776 38.26H88.212V35.4H91.952C93.184 35.4 94.0493 35.1213 94.548 34.564C95.076 34.0067 95.34 32.9947 95.34 31.528V25.456C95.34 23.4907 95.6333 22.0533 96.22 21.144C96.8067 20.2053 97.4813 19.5747 98.244 19.252C97.4813 18.9 96.8067 18.24 96.22 17.272C95.6333 16.304 95.34 14.896 95.34 13.048V6.976C95.34 5.50933 95.076 4.49733 94.548 3.94C94.02 3.38267 93.14 3.104 91.908 3.104H88.212V0.243997H91.776C93.1253 0.243997 94.24 0.390665 95.12 0.684C96.0293 0.977333 96.748 1.41733 97.276 2.004C97.8333 2.56133 98.2147 3.25066 98.42 4.072C98.6547 4.89333 98.772 5.84666 98.772 6.932V14.016C98.772 14.456 98.8307 14.9107 98.948 15.38C99.0653 15.82 99.2413 16.2307 99.476 16.612C99.74 16.964 100.048 17.2573 100.4 17.492C100.781 17.7267 101.221 17.844 101.72 17.844H103.524V20.66Z" fill="white"/>
<path d="M23.708 31V11.684C26.7 10.6573 29.7213 10.144 32.772 10.144C33.7107 10.144 34.6053 10.188 35.456 10.276C36.3067 10.3347 37.2453 10.4813 38.272 10.716L37.612 13.928C36.6733 13.664 35.8373 13.5027 35.104 13.444C34.4 13.356 33.6227 13.312 32.772 13.312C30.9827 13.312 29.164 13.5613 27.316 14.06V31H23.708ZM52.22 28.404C53.1293 28.404 53.936 28.3747 54.64 28.316C55.3733 28.2573 55.9747 28.184 56.444 28.096V22.024C55.9747 21.8773 55.4027 21.76 54.728 21.672C54.0827 21.584 53.3933 21.54 52.66 21.54C51.9853 21.54 51.3253 21.5987 50.68 21.716C50.0347 21.804 49.4627 21.98 48.964 22.244C48.4653 22.508 48.0547 22.86 47.732 23.3C47.4093 23.7107 47.248 24.2387 47.248 24.884C47.248 26.204 47.688 27.128 48.568 27.656C49.4773 28.1547 50.6947 28.404 52.22 28.404ZM51.868 10.1C53.3933 10.1 54.6693 10.2907 55.696 10.672C56.752 11.0533 57.6027 11.5813 58.248 12.256C58.8933 12.9307 59.348 13.752 59.612 14.72C59.876 15.688 60.008 16.744 60.008 17.888V30.648C59.1573 30.7947 58.028 30.9707 56.62 31.176C55.2413 31.3813 53.8187 31.484 52.352 31.484C51.2373 31.484 50.152 31.3813 49.096 31.176C48.04 31 47.1013 30.6773 46.28 30.208C45.4587 29.7093 44.7987 29.0347 44.3 28.184C43.8013 27.3333 43.552 26.248 43.552 24.928C43.552 23.7547 43.8013 22.772 44.3 21.98C44.828 21.1587 45.488 20.4987 46.28 20C47.1013 19.5013 48.0253 19.1493 49.052 18.944C50.108 18.7093 51.164 18.592 52.22 18.592C53.6573 18.592 55.0653 18.7533 56.444 19.076V18.064C56.444 17.448 56.3707 16.8613 56.224 16.304C56.1067 15.7173 55.8573 15.1893 55.476 14.72C55.124 14.2507 54.6253 13.884 53.98 13.62C53.364 13.3267 52.5573 13.18 51.56 13.18C50.2987 13.18 49.1987 13.268 48.26 13.444C47.3213 13.62 46.6027 13.796 46.104 13.972L45.664 10.98C46.1627 10.7453 46.984 10.54 48.128 10.364C49.3013 10.188 50.548 10.1 51.868 10.1ZM72.196 7.416C71.4333 7.416 70.7733 7.152 70.216 6.624C69.6587 6.096 69.38 5.37733 69.38 4.468C69.38 3.55867 69.6587 2.84 70.216 2.312C70.7733 1.784 71.4333 1.52 72.196 1.52C72.988 1.52 73.648 1.784 74.176 2.312C74.7333 2.84 75.012 3.55867 75.012 4.468C75.012 5.37733 74.7333 6.096 74.176 6.624C73.648 7.152 72.988 7.416 72.196 7.416ZM71.272 13.62H65.376V10.584H74.88V23.124C74.88 25.148 75.1587 26.512 75.716 27.216C76.2733 27.8907 77.1093 28.228 78.224 28.228C79.0747 28.228 79.852 28.1253 80.556 27.92C81.2893 27.7147 81.8613 27.4947 82.272 27.26L82.8 30.34C82.624 30.428 82.3747 30.5453 82.052 30.692C81.7293 30.8093 81.348 30.9267 80.908 31.044C80.4973 31.1613 80.028 31.264 79.5 31.352C79.0013 31.44 78.4733 31.484 77.916 31.484C76.6253 31.484 75.5547 31.308 74.704 30.956C73.8533 30.604 73.164 30.076 72.636 29.372C72.1373 28.668 71.7853 27.8027 71.58 26.776C71.3747 25.72 71.272 24.5027 71.272 23.124V13.62Z" fill="#FF3AC4"/>
</svg>
