<svg width="47" height="46" viewBox="0 0 47 46" fill="none" xmlns="http://www.w3.org/2000/svg">
<rect x="1" y="0.5" width="45" height="45" rx="22.5" stroke="#FF3AC4"/>
<mask id="mask0_1_104" style="mask-type:alpha" maskUnits="userSpaceOnUse" x="7" y="7" width="33" height="32">
<rect x="7.5" y="7" width="32" height="32" fill="#D9D9D9"/>
</mask>
<g mask="url(#mask0_1_104)">
<path d="M13.0968 34.4263C12.3465 34.4263 11.7041 34.1591 11.1697 33.6248C10.6353 33.0904 10.3682 32.448 10.3682 31.6976V15.3255C10.3682 14.5752 10.6353 13.9328 11.1697 13.3984C11.7041 12.864 12.3465 12.5969 13.0968 12.5969H34.9263C35.6767 12.5969 36.3191 12.864 36.8534 13.3984C37.3878 13.9328 37.655 14.5752 37.655 15.3255V31.6976C37.655 32.448 37.3878 33.0904 36.8534 33.6248C36.3191 34.1591 35.6767 34.4263 34.9263 34.4263H13.0968ZM24.0116 24.8759L13.0968 18.0542V31.6976H34.9263V18.0542L24.0116 24.8759ZM24.0116 22.1473L34.9263 15.3255H13.0968L24.0116 22.1473ZM13.0968 18.0542V15.3255V31.6976V18.0542Z" fill="#FF3AC4"/>
</g>
</svg>
