<svg width="46" height="46" viewBox="0 0 46 46" fill="none" xmlns="http://www.w3.org/2000/svg">
<rect x="0.5" y="0.5" width="45" height="45" rx="22.5" stroke="#FF3AC4"/>
<g clip-path="url(#clip0_1_103)">
<path fill-rule="evenodd" clip-rule="evenodd" d="M22.4508 7C13.3539 7 6 14.3333 6 23.4057C6 30.6577 10.7119 36.7963 17.2486 38.969C18.0659 39.1323 18.3652 38.616 18.3652 38.1817C18.3652 37.8013 18.3383 36.4977 18.3383 35.1393C13.7621 36.1173 12.8091 33.1837 12.8091 33.1837C12.0737 31.2823 10.984 30.7937 10.984 30.7937C9.48621 29.7887 11.0931 29.7887 11.0931 29.7887C12.7546 29.8973 13.6264 31.4727 13.6264 31.4727C15.0969 33.9713 17.4665 33.2653 18.4198 32.8307C18.5558 31.7713 18.9919 31.038 19.4549 30.6307C15.805 30.2503 11.9649 28.838 11.9649 22.5363C11.9649 20.7437 12.6182 19.277 13.6533 18.1363C13.49 17.729 12.9179 16.0447 13.817 13.7903C13.817 13.7903 15.206 13.3557 18.338 15.4743C19.6789 15.1152 21.0617 14.9325 22.4508 14.931C23.8399 14.931 25.2558 15.1213 26.5634 15.4743C29.6957 13.3557 31.0847 13.7903 31.0847 13.7903C31.9838 16.0447 31.4113 17.729 31.248 18.1363C32.3104 19.277 32.9368 20.7437 32.9368 22.5363C32.9368 28.838 29.0966 30.223 25.4195 30.6307C26.0189 31.1467 26.5361 32.1243 26.5361 33.6727C26.5361 35.8727 26.5092 37.6383 26.5092 38.1813C26.5092 38.616 26.8089 39.1323 27.6258 38.9693C34.1625 36.796 38.8744 30.6577 38.8744 23.4057C38.9013 14.3333 31.5204 7 22.4508 7Z" fill="#FF3AC4"/>
</g>
<defs>
<clipPath id="clip0_1_103">
<rect width="33" height="32" fill="white" transform="translate(6 7)"/>
</clipPath>
</defs>
</svg>
